<svg xmlns="http://www.w3.org/2000/svg" width="31" height="30" viewBox="0 0 31 30"><path fill="#fff" d="M27.86 30a3.13 3.13 0 0 1-2.85-4.41l-5.06-4.18a5.64 5.64 0 0 1-7.78-.2l-6.12 4.53A3.13 3.13 0 1 1 0 26.88a3.13 3.13 0 0 1 5.07-2.46l6.11-4.53a5.65 5.65 0 0 1 4.16-8.24V6.13A3.12 3.12 0 0 1 16.17 0 3.12 3.12 0 1 1 17 6.13v5.52a5.65 5.65 0 0 1 4 8.5l5.06 4.18A3.13 3.13 0 0 1 31 26.88C31 28.6 29.6 30 27.87 30zM3.14 25.4a1.48 1.48 0 1 0-.01 2.96 1.48 1.48 0 0 0 0-2.96zM17.65 3.12a1.49 1.49 0 0 0-2.97 0 1.48 1.48 0 0 0 2.97 0zm-1.48 10.11a4 4 0 0 0-4.01 3.99 4 4 0 0 0 8.01 0 4 4 0 0 0-4-3.99zm11.7 12.17a1.48 1.48 0 1 0 1.48 1.48c0-.82-.67-1.48-1.49-1.48z"/></svg>